#N canvas 0 28 1366 683 12;
#X obj 192 180 osc~ 440;
#X obj 39 177 osc~ 220;
#X obj 339 183 osc~ 660;
#X obj 383 223 *~;
#X obj 224 223 *~;
#X obj 72 224 *~;
#X floatatom 111 124 5 0 0 0 - - - 0 0 1, f 5;
#X floatatom 429 126 5 0 0 0 - - - 0 0 1, f 5;
#X floatatom 275 124 5 0 0 0 - - - 0 0 1, f 5;
#X obj 159 382 overtones;
#X obj 250 328 t b;
#X msg 141 90 0.5;
#X msg 293 89 0.25;
#X msg 445 89 0.125;
#X obj 256 22 loadbang;
#X obj 262 57 t b b b;
#X obj 165 30 bng 15 250 50 0 empty empty empty 17 7 0 10 #fcfcfc #000000
#000000 1;
#X obj 149 438 route 1 2 3;
#X obj 107 496 unpack f f f f;
#X floatatom 81 540 5 0 0 0 - - - 0 0 1, f 5;
#X text 131 542 fundamental track #;
#X floatatom 109 577 5 0 0 0 - - - 0 0 1, f 5;
#X text 158 579 fundamental freq;
#X floatatom 143 616 5 0 0 0 - - - 0 0 1, f 5;
#X text 191 618 fundamental amp;
#X floatatom 172 646 5 0 0 0 - - - 0 0 1, f 5;
#X text 220 648 fundamental newflag;
#X obj 378 509 unpack f f f f;
#X floatatom 352 553 5 0 0 0 - - - 0 0 1, f 5;
#X floatatom 380 590 5 0 0 0 - - - 0 0 1, f 5;
#X floatatom 414 629 5 0 0 0 - - - 0 0 1, f 5;
#X floatatom 443 659 5 0 0 0 - - - 0 0 1, f 5;
#X obj 626 508 unpack f f f f;
#X floatatom 600 552 5 0 0 0 - - - 0 0 1, f 5;
#X floatatom 628 589 5 0 0 0 - - - 0 0 1, f 5;
#X floatatom 662 628 5 0 0 0 - - - 0 0 1, f 5;
#X floatatom 691 658 5 0 0 0 - - - 0 0 1, f 5;
#X text 402 555 2 track #;
#X text 429 592 2 freq;
#X text 463 631 2 amp;
#X text 491 661 2 newflag;
#X text 650 554 3 track #;
#X text 677 591 3 freq;
#X text 710 631 3 amp;
#X text 739 660 3 newflag;
#X obj 117 286 sigmund~ -hop 256 -npts 4096 -npeak 20 tracks pitch
;
#X obj 415 183 line;
#X msg 422 154 \$1 100;
#X msg 273 154 \$1 100;
#X msg 119 155 \$1 100;
#X obj 262 188 line;
#X obj 107 182 line;
#X connect 0 0 4 0;
#X connect 1 0 5 0;
#X connect 2 0 3 0;
#X connect 3 0 45 0;
#X connect 4 0 45 0;
#X connect 5 0 45 0;
#X connect 6 0 49 0;
#X connect 7 0 47 0;
#X connect 8 0 48 0;
#X connect 9 0 17 0;
#X connect 10 0 9 0;
#X connect 11 0 6 0;
#X connect 12 0 8 0;
#X connect 13 0 7 0;
#X connect 14 0 15 0;
#X connect 15 0 11 0;
#X connect 15 1 12 0;
#X connect 15 2 13 0;
#X connect 16 0 15 0;
#X connect 17 0 18 0;
#X connect 17 1 27 0;
#X connect 17 2 32 0;
#X connect 18 0 19 0;
#X connect 18 1 21 0;
#X connect 18 2 23 0;
#X connect 18 3 25 0;
#X connect 27 0 28 0;
#X connect 27 1 29 0;
#X connect 27 2 30 0;
#X connect 27 3 31 0;
#X connect 32 0 33 0;
#X connect 32 1 34 0;
#X connect 32 2 35 0;
#X connect 32 3 36 0;
#X connect 45 0 9 0;
#X connect 45 1 10 0;
#X connect 46 0 3 1;
#X connect 47 0 46 0;
#X connect 48 0 50 0;
#X connect 49 0 51 0;
#X connect 50 0 4 1;
#X connect 51 0 5 1;
