#N canvas 464 239 450 300 12;
#X obj 98 93 unpack f f f f;
#X obj 101 197 pack f f f f;
#X obj 148 143 *;
#X obj 203 117 r \$1-amp-mult;
#X obj 87 3 inlet;
#X obj 89 245 outlet;
#X connect 0 0 1 0;
#X connect 0 1 1 1;
#X connect 0 2 2 0;
#X connect 0 3 1 3;
#X connect 1 0 5 0;
#X connect 2 0 1 2;
#X connect 3 0 2 1;
#X connect 4 0 0 0;
