#N struct template-overtone float seq float freq_ratio float harmonic
float amp_ratio float tracknum float f float amp float newflag float
env float pitch float note;
#N struct template-storage float seq array s template-overtone;
#N canvas 15 94 1307 691 10;
#X obj 153 301 overtones;
#X obj 476 -51 bng 15 250 50 0 empty empty empty 17 7 0 10 -262144
-1 -1;
#X obj 218 159 adc~;
#X obj 364 238 t b;
#X obj 301 276 f;
#X obj 323 343 print;
#X obj 318 304 mtof;
#X obj 63 564 dac~;
#X obj 40 220 osc~ 440;
#X obj 41 648 overtones;
#X msg 165 625 print;
#X obj 215 569 bng 15 250 50 0 empty empty empty 17 7 0 10 -262144
-1 -1;
#X obj 120 613 t b;
#N canvas 194 164 450 300 record 0;
#X obj 66 40 adc~;
#X obj 240 83 table rec 192000;
#X obj 76 76 tabwrite~ rec;
#X msg 169 41 start;
#X obj 161 8 bng 15 250 50 0 empty empty empty 17 7 0 10 -262144 -1
-1;
#X connect 0 0 2 0;
#X connect 3 0 2 0;
#X connect 4 0 3 0;
#X restore 658 43 pd record;
#X obj 256 120 tabplay~ rec;
#X obj 283 18 bng 15 250 50 0 empty empty empty 17 7 0 10 -262144 -1
-1;
#X msg 328 45 stop;
#X obj 246 42 bng 15 250 50 0 empty empty empty 17 7 0 10 -262144 -1
-1;
#X obj 307 154 del 100;
#X obj 216 631 f;
#X obj 298 639 print;
#X obj 255 646 mtof;
#X obj 16 134 *~ 0.054;
#X obj 96 90 *~ 0.89;
#X obj 133 99 *~ 0.25;
#X obj 13 87 osc~ 23;
#X obj -25 589 sigmund~ -npts 8192 tracks pitch;
#N canvas 424 308 852 378 template-overtone 0;
#X obj 179 225 pointer;
#N canvas 353 274 450 300 test-o-data 0;
#X scalar template-overtone 0 1 1 1 2 440 0.8 1 0.2 440 440 \;;
#X scalar template-overtone 0 2.03 2 0.5 2 880 0.4 0 0.2 440 440 \;
;
#X scalar template-overtone 0 0.42 -1 0.1 3 200 0.08 1 0.2 440 440
\;;
#X restore -5 122 pd test-o-data;
#X msg 152 194 traverse pd-test-o-data \, bang;
#X msg 365 190 \; pd-test-o-data clear;
#X obj 214 108 bng 15 250 50 0 empty empty empty 17 7 0 10 -262144
-1 -1;
#X obj 216 137 t b b b b;
#X msg -165 192 \; pd-test-o-data sort \; pd-test-o-data write test-o-data.txt
;
#X msg 396 112 \; pd-test-o-data write test-o-data.txt;
#X text 425 307 seq is only used in the template-storage array;
#X msg -8 252 1 1 1 2 440 0.8 1 0.2 440 440 \, 2.03 2 0.5 2 880 0.4
0 0.2 440 440 \, 0.42 -1 0.1 3 200 0.08 1 0.2 440 440;
#X obj 69 307 append template-overtone freq_ratio harmonic amp_ratio
tracknum f amp newflag env pitch note;
#X obj 23 13 struct template-overtone float seq float freq_ratio float
harmonic float amp_ratio float tracknum float f float amp float newflag
float env float pitch float note;
#X connect 0 0 10 10;
#X connect 2 0 0 0;
#X connect 4 0 5 0;
#X connect 5 0 6 0;
#X connect 5 1 9 0;
#X connect 5 2 2 0;
#X connect 5 3 3 0;
#X connect 9 0 10 0;
#X restore 659 70 pd template-overtone;
#N canvas 135 319 450 300 overtone-data 0;
#X restore 661 95 pd overtone-data;
#X msg 661 116 \; pd-overtone-data sort \; pd-overtone-data write overtone-data.txt
;
#X obj 795 -8 bng 15 250 50 0 empty empty empty 17 7 0 10 -262144 -1
-1;
#X obj 16 44 osc~ 100;
#X obj 84 12 osc~ 200;
#X obj 152 35 osc~ 400;
#X obj 81 128 *~ 0.4;
#X obj 5 161 osc~ 50;
#X obj 45 185 *~ 0.5;
#X obj 738 309 moses 0.15;
#X msg 795 335 1;
#X obj 779 275 spigot;
#X msg 815 445 0;
#X obj 703 405 moses 0.05;
#X text 504 -51 print current;
#X msg 880 215 1;
#X obj 917 183 bng 15 250 50 0 empty empty empty 17 7 0 10 -262144
-1 -1;
#X obj 815 232 ii 0;
#X floatatom 188 103 5 0 0 0 - - -;
#X obj 150 151 vline~;
#X msg 158 127 \$1 20;
#X obj 112 182 *~;
#X obj 549 134 bng 15 250 50 0 empty empty empty 17 7 0 10 -262144
-1 -1;
#X obj 726 368 spigot;
#X obj 1016 306 tgl 15 0 empty empty empty 17 7 0 10 -262144 -1 -1
0 1;
#X text 817 -7 output spectrum from overtone-data;
#X obj 254 334 s o-out;
#X obj 371 273 s a-bang;
#X obj 181 255 r a-bang;
#X obj 426 -4 t b b;
#X msg 398 25 print;
#X obj 464 26 s print-pitch;
#X obj 247 240 r print-pitch;
#N canvas 353 171 832 424 store-single 0;
#X obj 286 135 spigot;
#X obj 144 239 spigot;
#X msg 374 143 0;
#X msg 373 108 1;
#X msg 185 182 1;
#X obj 381 224 pointer;
#X obj 427 57 t b b b;
#X msg 413 148 traverse pd-overtone-data \, bang;
#X msg 618 164 \; pd-overtone-data clear;
#X obj 236 251 spigot;
#X msg 249 213 1;
#X msg 202 254 0;
#X obj 294 257 ii 0;
#X obj 324 98 ii 0;
#X obj 188 212 ii 0;
#X obj 400 81 del 5;
#X obj 233 101 t b b;
#X obj 136 204 r o-out;
#X msg 303 183 print;
#X obj 185 72 r a-bang;
#X obj 526 62 r store-single;
#X obj 648 109 r data-reset;
#X text 349 182 trigger a print for debugging;
#X obj 52 305 append template-overtone freq_ratio harmonic amp_ratio
tracknum f amp newflag;
#X obj 285 207 s overtones-control;
#X connect 0 0 2 0;
#X connect 0 0 4 0;
#X connect 0 0 10 0;
#X connect 0 0 18 0;
#X connect 1 0 23 0;
#X connect 2 0 0 1;
#X connect 3 0 0 1;
#X connect 4 0 1 1;
#X connect 5 0 23 7;
#X connect 6 0 15 0;
#X connect 6 1 7 0;
#X connect 6 2 8 0;
#X connect 7 0 5 0;
#X connect 9 0 11 0;
#X connect 10 0 9 1;
#X connect 11 0 1 1;
#X connect 11 0 9 1;
#X connect 12 0 9 1;
#X connect 13 0 0 1;
#X connect 14 0 1 1;
#X connect 15 0 3 0;
#X connect 16 0 0 0;
#X connect 16 1 9 0;
#X connect 17 0 1 0;
#X connect 18 0 24 0;
#X connect 19 0 16 0;
#X connect 20 0 6 0;
#X connect 21 0 8 0;
#X restore 656 20 pd store-single;
#X obj 640 -38 bng 15 250 50 0 empty empty empty 17 7 0 10 -262144
-1 -1;
#X text 661 -39 store single analysis in overtone-data;
#X obj 651 -7 s store-single;
#X obj -72 443 r set-output;
#X obj 808 20 s send-data;
#N canvas 575 287 450 367 send-data 0;
#X obj -37 148 pointer;
#X msg -45 93 traverse pd-overtone-data \, next;
#X obj 36 210 spigot;
#X msg 34 175 0;
#X obj -26 189 t b p;
#X msg 16 124 next;
#X obj -56 242 get template-overtone tracknum f amp newflag;
#X obj -1 291 pack 0 0 0 0;
#X msg 69 171 1;
#X obj 21 19 t b b;
#X obj 34 321 print set;
#X obj -64 316 s set-output;
#X obj 75 27 r send-data;
#X connect 0 0 4 0;
#X connect 0 1 3 0;
#X connect 1 0 0 0;
#X connect 2 0 5 0;
#X connect 3 0 2 1;
#X connect 4 0 2 0;
#X connect 4 1 6 0;
#X connect 5 0 0 0;
#X connect 6 0 7 0;
#X connect 6 1 7 1;
#X connect 6 2 7 2;
#X connect 6 3 7 3;
#X connect 7 0 10 0;
#X connect 7 0 11 0;
#X connect 8 0 2 1;
#X connect 9 0 1 0;
#X connect 9 1 8 0;
#X connect 12 0 9 0;
#X restore 810 47 pd send-data;
#X obj 405 239 s env;
#X obj 757 233 r env;
#X obj 677 313 r env;
#X obj 974 409 s data-record-spigot;
#X obj 744 338 ii 0;
#X obj 847 478 s data-record-off;
#X obj 818 399 r data-record-off;
#X obj 860 264 r data-record-off;
#X obj 669 451 print data-record-stop;
#X text 1044 305 manual record on-off;
#X obj 546 164 s data-reset;
#N canvas 59 182 608 300 send-to-average 0;
#X obj 343 8 vector-average;
#X msg 247 -114 next;
#X obj 106 -113 + 4;
#X text 133 -115 partial number;
#X obj 195 -63 pack f f;
#X text 254 -63 index amplitude;
#X msg 241 -29 data \$2 \$1;
#X obj 72 -140 select -1;
#X obj 53 -203 spigot;
#X obj 210 -141 spigot;
#X obj 142 -91 moses 100;
#X msg 313 -102 reset;
#X obj 57 -179 unpack f f f f f f f;
#X obj 27 -232 r o-out;
#X obj 183 -169 r a-bang;
#X obj 126 -237 r data-record-spigot;
#X obj 262 -175 r data-record-spigot;
#X obj 297 -141 r data-reset;
#X obj 442 -135 r set-average-table;
#X connect 1 0 0 0;
#X connect 2 0 10 0;
#X connect 4 0 6 0;
#X connect 6 0 0 0;
#X connect 7 1 2 0;
#X connect 8 0 12 0;
#X connect 9 0 1 0;
#X connect 10 0 4 0;
#X connect 11 0 0 0;
#X connect 12 1 7 0;
#X connect 12 2 4 1;
#X connect 13 0 8 0;
#X connect 14 0 9 0;
#X connect 15 0 8 1;
#X connect 16 0 9 1;
#X connect 17 0 11 0;
#X connect 18 0 0 0;
#X restore 514 190 pd send-to-average;
#X obj 142 367 s set-output;
#X obj 528 247 s set-average-table;
#X obj 533 276 table average1 100;
#X obj 538 303 table average2 100;
#X msg 509 216 set average1;
#X msg 619 218 set average2;
#N canvas 562 112 719 308 ms-calc 0;
#X obj 124 66 samplerate~;
#X obj 134 100 s sample-rate;
#X obj 102 2 bng 15 250 50 0 empty empty empty 17 7 0 10 -262144 -1
-1;
#X obj 151 1 loadbang;
#X obj 253 88 expr ( $f1 / $f2 ) * 1000;
#X obj 344 27 r sample-rate;
#X obj 120 31 t b b;
#X msg 79 71 64;
#X obj 46 104 s blocksize;
#X obj 232 29 r hop;
#X obj 249 138 s hop-ms;
#X obj 312 120 print hop-ms;
#X obj 144 144 r sample-rate;
#X obj 32 146 r hop;
#X obj 53 205 expr $f2 / $f1;
#X obj 112 237 print hop-hz;
#X obj 49 255 s hop-hz;
#X obj -220 145 s efx-delay-ms;
#X obj -153 24 r window-size;
#X obj -203 77 expr ( $f1 / $f2 ) * 1000;
#X obj -26 26 r sample-rate;
#X obj -144 109 print efx-delay-ms;
#X connect 0 0 1 0;
#X connect 2 0 6 0;
#X connect 3 0 6 0;
#X connect 4 0 10 0;
#X connect 4 0 11 0;
#X connect 5 0 4 1;
#X connect 6 0 7 0;
#X connect 6 1 0 0;
#X connect 7 0 8 0;
#X connect 9 0 4 0;
#X connect 12 0 14 1;
#X connect 13 0 14 0;
#X connect 14 0 15 0;
#X connect 14 0 16 0;
#X connect 18 0 19 0;
#X connect 19 0 17 0;
#X connect 19 0 21 0;
#X connect 20 0 19 1;
#X restore 997 90 pd ms-calc;
#X floatatom 1039 14 5 0 0 0 - - -;
#X obj 1065 -40 ii 256;
#X floatatom 1135 12 5 0 0 0 - - -;
#X obj 1161 -42 ii 8192;
#X obj 375 126 r hop;
#X obj 450 139 r window-size;
#X msg 358 167 hop \$1;
#X msg 433 174 npts \$1;
#X obj 1042 56 s hop;
#X obj 1138 54 s window-size;
#X obj 152 336 spigot;
#X obj 246 367 tgl 15 0 empty empty empty 17 7 0 10 -262144 -1 -1 1
1;
#X text 268 367 live output;
#N canvas 179 50 1050 666 store 0;
#X obj -69 311 r o-out;
#X obj 283 190 pointer;
#X obj 281 219 t b p;
#X obj 327 473 element template-storage s;
#X obj 196 367 f;
#X obj 270 320 t b p;
#X msg 231 341 0;
#X msg 196 128 next;
#X obj 166 223 f;
#X msg 218 195 0;
#X obj 231 224 + 1;
#X obj 154 332 + 1;
#X obj 270 288 append template-storage seq;
#X obj 259 258 f;
#X obj 169 396 t f f;
#X obj 329 437 setsize template-storage s;
#X obj 279 428 + 1;
#X obj 192 157 t a b;
#X obj 263 157 t a b;
#X obj 291 9 r data-reset;
#X obj 290 44 t b b;
#N canvas 599 455 450 300 storage-data 0;
#X scalar template-storage 0 \; 0 0 0 0 0 0 0 0 0 0 0 \; \;;
#X restore 501 66 pd storage-data;
#X msg 497 21 \; pd-storage-data write storage-data.txt;
#X msg 329 73 \; pd-storage-data clear \;;
#X obj 80 23 r a-bang;
#X obj 132 80 spigot;
#X obj 249 9 ii 0;
#X obj 154 50 r data-record-spigot;
#X obj -30 432 unpack f f f f f f f;
#X obj -44 400 t a b;
#X obj 190 420 t f f;
#X obj -25 471 t b f;
#X obj -13 578 f;
#X obj 131 266 s seq;
#X obj 3 546 r seq;
#X obj -43 357 spigot;
#X obj -21 327 r data-record-spigot;
#X msg 277 129 traverse pd-storage-data \, bang;
#X obj 166 519 r env;
#X obj 274 519 r note;
#X obj 174 628 set template-overtone seq freq_ratio harmonic amp_ratio
tracknum f amp newflag env pitch note;
#X obj 55 598 pack f f f f f f f f f f f;
#X obj 211 519 r pitch;
#X obj 201 562 mtof;
#X obj 255 564 mtof;
#X connect 0 0 35 0;
#X connect 1 0 2 0;
#X connect 2 0 13 0;
#X connect 2 1 12 1;
#X connect 3 0 40 11;
#X connect 4 0 14 0;
#X connect 5 0 6 0;
#X connect 5 1 3 1;
#X connect 5 1 15 1;
#X connect 6 0 4 1;
#X connect 7 0 17 0;
#X connect 8 0 10 0;
#X connect 8 0 13 1;
#X connect 8 0 33 0;
#X connect 9 0 8 0;
#X connect 10 0 8 1;
#X connect 11 0 4 1;
#X connect 12 0 5 0;
#X connect 13 0 12 0;
#X connect 14 0 11 0;
#X connect 14 1 30 0;
#X connect 16 0 15 0;
#X connect 17 0 1 0;
#X connect 17 1 8 0;
#X connect 18 0 1 0;
#X connect 18 1 9 0;
#X connect 19 0 20 0;
#X connect 20 0 37 0;
#X connect 20 1 23 0;
#X connect 24 0 25 0;
#X connect 25 0 7 0;
#X connect 26 0 20 0;
#X connect 27 0 25 1;
#X connect 28 0 31 0;
#X connect 28 1 41 2;
#X connect 28 2 41 3;
#X connect 28 3 41 4;
#X connect 28 4 41 5;
#X connect 28 5 41 6;
#X connect 28 6 41 7;
#X connect 29 0 28 0;
#X connect 29 1 4 0;
#X connect 30 0 3 0;
#X connect 30 1 16 0;
#X connect 31 0 32 0;
#X connect 31 1 41 1;
#X connect 32 0 41 0;
#X connect 34 0 32 1;
#X connect 35 0 29 0;
#X connect 36 0 35 1;
#X connect 37 0 18 0;
#X connect 38 0 41 8;
#X connect 39 0 44 0;
#X connect 41 0 40 0;
#X connect 42 0 43 0;
#X connect 43 0 41 9;
#X connect 44 0 41 10;
#X restore 476 451 pd store;
#N canvas 398 84 851 625 template-storage 0;
#X text 79 31 each element represents a spectrum of partials of a tone
\, consecutive elements represent evolution over time;
#N canvas 598 454 450 300 test-storage-data 0;
#X scalar template-storage 0 \; 0 1 1 1 2 440 0.8 1 0.2 440 440 \;
0 2 2 1 2 880 0.8 1 0.2 440 440 \; 0 3 3 1 2 1320 0.8 1 0.2 440 440
\; 0 4 4 1 2 1760 0.8 1 0.2 440 440 \; \;;
#X scalar template-storage 1 \; 1 1 1 1 2 440 0.8 1 0.2 440 440 \;
1 2 2 1 2 880 0.8 1 0.2 440 440 \; 1 3 3 1 2 1320 0.8 1 0.2 440 440
\; 1 4 4 1 2 1760 0.8 1 0.2 440 440 \; \;;
#X scalar template-storage 2 \; 2 1 1 1 2 440 0.8 1 0.2 440 440 \;
2 2 2 1 2 880 0.8 1 0.2 440 440 \; 2 3 3 1 2 1320 0.8 1 0.2 440 440
\; 2 4 4 1 2 1760 0.8 1 0.2 440 440 \; \;;
#X scalar template-storage 3 \; 3 1 1 1 2 440 0.8 1 0.2 440 440 \;
3 2 2 1 2 880 0.8 1 0.2 440 440 \; 3 3 3 1 2 1320 0.8 1 0.2 440 440
\; 3 4 4 1 2 1760 0.8 1 0.2 440 440 \; \;;
#X restore 396 116 pd test-storage-data;
#X obj 170 199 pointer;
#X obj 168 228 t b p;
#X obj 214 482 element template-storage s;
#X obj 83 376 f;
#X obj 157 329 t b p;
#X msg 118 350 0;
#X msg 83 137 next;
#X obj 53 232 f;
#X msg 105 204 0;
#X obj -47 497 pack f f f;
#X obj 118 233 + 1;
#X msg 394 143 \; pd-test-storage-data write test-storage-data.txt
;
#X obj 25 388 + 1;
#X obj 63 337 moses 4;
#X msg 164 138 traverse pd-test-storage-data \, bang;
#X obj 28 594 print write;
#X obj 255 329 print append;
#X obj 49 72 struct template-storage float seq array s template-overtone
;
#X obj 157 297 append template-storage seq;
#X obj 146 267 f;
#X obj 166 413 print element;
#X msg 491 207 \; pd-test-storage-data clear \;;
#X obj 56 405 t f f;
#X obj 216 446 setsize template-storage s;
#X obj 77 429 t f f f f;
#X obj 166 437 + 1;
#X obj -85 358 print seq;
#X obj 79 166 t a b;
#X obj 150 166 t a b;
#X obj 46 475 expr ( $f1 + 1 ) * 440;
#X obj 20 459 + 1;
#X obj 62 558 set template-overtone seq freq_ratio harmonic amp_ratio
tracknum f amp newflag env pitch note;
#X msg -21 525 \$2 \$1 \$1 1 2 \$3 0.8 1 0.2 440 440;
#X connect 2 0 3 0;
#X connect 3 0 21 0;
#X connect 3 1 20 1;
#X connect 4 0 33 11;
#X connect 5 0 24 0;
#X connect 6 0 7 0;
#X connect 6 1 4 1;
#X connect 6 1 25 1;
#X connect 7 0 5 0;
#X connect 8 0 29 0;
#X connect 9 0 11 1;
#X connect 9 0 12 0;
#X connect 9 0 21 1;
#X connect 9 0 28 0;
#X connect 10 0 9 0;
#X connect 11 0 34 0;
#X connect 12 0 9 1;
#X connect 14 0 15 0;
#X connect 15 0 5 0;
#X connect 16 0 30 0;
#X connect 20 0 6 0;
#X connect 20 0 18 0;
#X connect 21 0 20 0;
#X connect 24 0 14 0;
#X connect 24 1 22 0;
#X connect 24 1 26 0;
#X connect 26 0 32 0;
#X connect 26 1 31 0;
#X connect 26 2 4 0;
#X connect 26 3 27 0;
#X connect 27 0 25 0;
#X connect 29 0 2 0;
#X connect 29 1 9 0;
#X connect 30 0 2 0;
#X connect 30 1 10 0;
#X connect 31 0 11 2;
#X connect 32 0 11 0;
#X connect 34 0 17 0;
#X connect 34 0 33 0;
#X restore 473 476 pd template-storage;
#X text 944 180 record a note;
#X msg 473 508 \; pd-storage-data write storage-data.txt;
#X obj 151 209 sigmund~ -npts 8192 tracks pitch env notes;
#X obj 461 232 s note;
#X obj 382 302 s pitch;
#X obj 1103 181 bng 15 250 50 0 empty empty empty 17 7 0 10 -262144
-1 -1;
#X msg 1040 234 1;
#X msg 1102 257 0;
#X obj 1120 228 del 1000;
#X msg 32 474 attack-ms \$1;
#X floatatom 28 449 5 0 0 0 - - -;
#X floatatom 118 449 5 0 0 0 - - -;
#X msg 122 474 release-ms \$1;
#X msg 217 474 amp-thresh;
#X floatatom 214 453 5 0 0 0 - - -;
#X obj 205 431 ii 0;
#X obj 21 380 ii 20;
#N canvas 337 124 915 416 control 1;
#X msg 85 33 clear \, transform db + 7.5 >= 1.5 \, transform freq *
0.5 all 0 \, transform db - 7.5 >= 6;
#X obj 182 388 s overtones-control;
#X msg 220 210 clear;
#X floatatom 128 72 5 0 0 0 - - -;
#X obj 178 171 t a b;
#X msg 175 121 transform freq * 0.5 all 0;
#X msg 100 208 clear;
#X obj 480 43 ii 0;
#X floatatom 440 219 5 0 0 0 - - -;
#X floatatom 482 220 5 0 0 0 - - -;
#X floatatom 527 221 5 0 0 0 - - -;
#X obj 436 240 t b f;
#X obj 431 74 vsl 15 128 -40 40 0 0 empty empty empty 0 -9 0 10 -262144
-1 -1 0 1;
#X obj 518 75 vsl 15 128 -40 40 0 0 empty empty empty 0 -9 0 10 -262144
-1 -1 6800 1;
#X obj 564 74 vsl 15 128 -40 40 0 0 empty empty empty 0 -9 0 10 -262144
-1 -1 4000 1;
#X obj 480 74 vsl 15 128 -40 40 0 0 empty empty empty 0 -9 0 10 -262144
-1 -1 4700 1;
#X obj 486 247 t b f;
#X obj 590 246 t b f;
#X obj 534 249 t b f;
#X floatatom 578 222 5 0 0 0 - - -;
#X obj 485 12 bng 15 250 50 0 empty empty empty 17 7 0 10 -262144 -1
-1;
#X msg 151 96 transform db + \$1 odd 0;
#X obj 615 74 vsl 15 128 -40 40 0 0 empty empty empty 0 -9 0 10 -262144
-1 -1 6200 1;
#X obj 641 246 t b f;
#X floatatom 629 222 5 0 0 0 - - -;
#X obj 669 73 vsl 15 128 -40 40 0 0 empty empty empty 0 -9 0 10 -262144
-1 -1 4400 1;
#X obj 695 245 t b f;
#X floatatom 683 221 5 0 0 0 - - -;
#X obj 721 74 vsl 15 128 -40 40 0 0 empty empty empty 0 -9 0 10 -262144
-1 -1 5800 1;
#X obj 747 246 t b f;
#X floatatom 735 222 5 0 0 0 - - -;
#X obj 779 72 vsl 15 128 -40 40 0 0 empty empty empty 0 -9 0 10 -262144
-1 -1 7000 1;
#X obj 805 244 t b f;
#X floatatom 793 220 5 0 0 0 - - -;
#X obj 833 74 vsl 15 128 -40 40 0 0 empty empty empty 0 -9 0 10 -262144
-1 -1 0 1;
#X obj 859 246 t b f;
#X floatatom 847 222 5 0 0 0 - - -;
#X obj 512 317 pack f f f f f f f f f;
#X msg 508 345 clear \, transform freq * 0.5 all 0 \, transform db
+ \$1 < -1 \, transform db + \$2 = 1 \, transform db + \$3 = 2 \, transform
db + \$4 = 3 \, transform db + \$5 = 4 \, transform db + \$6 = 5 \,
transform db + \$7 = 6 \, transform db + \$8 = 7 \, transform db +
\$9 >= 8 \, transform db - 100 outlier 0;
#X connect 0 0 1 0;
#X connect 2 0 1 0;
#X connect 3 0 21 0;
#X connect 4 0 1 0;
#X connect 4 1 2 0;
#X connect 5 0 4 0;
#X connect 6 0 1 0;
#X connect 7 0 12 0;
#X connect 7 0 15 0;
#X connect 7 0 13 0;
#X connect 7 0 14 0;
#X connect 7 0 22 0;
#X connect 7 0 25 0;
#X connect 7 0 28 0;
#X connect 7 0 31 0;
#X connect 7 0 34 0;
#X connect 8 0 11 0;
#X connect 9 0 16 0;
#X connect 10 0 18 0;
#X connect 11 0 37 0;
#X connect 11 1 37 0;
#X connect 12 0 8 0;
#X connect 13 0 10 0;
#X connect 14 0 19 0;
#X connect 15 0 9 0;
#X connect 16 0 37 0;
#X connect 16 1 37 1;
#X connect 17 0 37 0;
#X connect 17 1 37 3;
#X connect 18 0 37 0;
#X connect 18 1 37 2;
#X connect 19 0 17 0;
#X connect 20 0 7 0;
#X connect 21 0 4 0;
#X connect 22 0 24 0;
#X connect 23 0 37 0;
#X connect 23 1 37 4;
#X connect 24 0 23 0;
#X connect 25 0 27 0;
#X connect 26 0 37 0;
#X connect 26 1 37 5;
#X connect 27 0 26 0;
#X connect 28 0 30 0;
#X connect 29 0 37 0;
#X connect 29 1 37 6;
#X connect 30 0 29 0;
#X connect 31 0 33 0;
#X connect 32 0 37 0;
#X connect 32 1 37 7;
#X connect 33 0 32 0;
#X connect 34 0 36 0;
#X connect 35 1 37 8;
#X connect 36 0 35 0;
#X connect 37 0 38 0;
#X connect 38 0 1 0;
#X restore 8 249 pd control;
#X obj 13 275 r overtones-control;
#X obj -1 315 print overtones-control;
#X obj 381 49 s overtones-control;
#X obj 59 519 martha~ 20 40;
#X connect 0 0 97 0;
#X connect 0 1 54 0;
#X connect 1 0 57 0;
#X connect 2 0 104 0;
#X connect 3 0 55 0;
#X connect 4 0 6 0;
#X connect 6 0 5 0;
#X connect 10 0 9 0;
#X connect 11 0 10 0;
#X connect 11 0 19 0;
#X connect 12 0 9 0;
#X connect 14 1 18 0;
#X connect 15 0 16 0;
#X connect 16 0 14 0;
#X connect 17 0 14 0;
#X connect 18 0 14 0;
#X connect 19 0 21 0;
#X connect 21 0 20 0;
#X connect 22 0 49 0;
#X connect 23 0 49 0;
#X connect 24 0 49 0;
#X connect 25 0 22 0;
#X connect 26 0 9 0;
#X connect 26 1 12 0;
#X connect 26 1 19 1;
#X connect 30 0 66 0;
#X connect 31 0 34 0;
#X connect 32 0 23 0;
#X connect 33 0 24 0;
#X connect 34 0 49 0;
#X connect 35 0 36 0;
#X connect 36 0 49 0;
#X connect 37 1 38 0;
#X connect 38 0 51 1;
#X connect 38 0 71 0;
#X connect 39 0 37 0;
#X connect 40 0 71 0;
#X connect 40 0 73 0;
#X connect 41 0 40 0;
#X connect 41 0 76 0;
#X connect 43 0 39 1;
#X connect 44 0 43 0;
#X connect 45 0 39 1;
#X connect 46 0 48 0;
#X connect 47 0 49 1;
#X connect 48 0 47 0;
#X connect 50 0 78 0;
#X connect 51 0 41 0;
#X connect 52 0 71 0;
#X connect 56 0 0 0;
#X connect 57 0 58 0;
#X connect 57 1 59 0;
#X connect 58 0 122 0;
#X connect 60 0 4 0;
#X connect 62 0 64 0;
#X connect 65 0 123 0;
#X connect 69 0 39 0;
#X connect 70 0 51 0;
#X connect 72 0 51 1;
#X connect 74 0 51 1;
#X connect 75 0 39 1;
#X connect 84 0 81 0;
#X connect 85 0 81 0;
#X connect 87 0 95 0;
#X connect 88 0 87 0;
#X connect 89 0 96 0;
#X connect 90 0 89 0;
#X connect 91 0 93 0;
#X connect 92 0 94 0;
#X connect 93 0 104 0;
#X connect 94 0 104 0;
#X connect 97 0 80 0;
#X connect 98 0 97 1;
#X connect 104 0 0 0;
#X connect 104 1 3 0;
#X connect 104 1 4 1;
#X connect 104 1 106 0;
#X connect 104 2 68 0;
#X connect 104 3 105 0;
#X connect 107 0 108 0;
#X connect 107 0 110 0;
#X connect 108 0 52 0;
#X connect 109 0 52 0;
#X connect 110 0 109 0;
#X connect 111 0 123 1;
#X connect 112 0 111 0;
#X connect 113 0 114 0;
#X connect 114 0 123 1;
#X connect 115 0 123 1;
#X connect 116 0 115 0;
#X connect 117 0 116 0;
#X connect 118 0 112 0;
#X connect 118 0 113 0;
#X connect 120 0 0 0;
#X connect 120 0 121 0;
#X connect 123 0 26 0;
#X connect 123 0 7 0;
#X connect 123 0 7 1;
