#N canvas 335 225 450 300 10;
#X obj 122 51 inlet;
#X obj 136 100 unpack f f f f;
#X obj 133 221 pack f f f f;
#X obj 194 161 *;
#X obj 226 133 r partial-mult-\$1;
#X obj 139 263 outlet;
#X connect 0 0 1 0;
#X connect 1 0 2 0;
#X connect 1 1 2 1;
#X connect 1 2 3 0;
#X connect 1 3 2 3;
#X connect 2 0 5 0;
#X connect 3 0 2 2;
#X connect 4 0 3 1;
