#N canvas 446 40 849 669 10;
#X obj 359 413 overtones;
#X obj 495 402 t b;
#X obj 619 441 print note;
#X obj 575 425 t b;
#X obj 409 247 readsf~;
#X obj 364 4 loadbang;
#X obj 369 552 writesf~;
#X msg 106 285 open moodtossbass1out.wav;
#X obj 319 285 t b b;
#X msg 324 341 stop;
#X obj 180 131 bng 15 250 50 0 empty empty empty 17 7 0 10 #fcfcfc
#000000 #000000 1;
#X msg 454 183 open moodtossbass1.wav;
#X msg 250 217 start;
#N canvas 108 349 832 348 ms-calc 0;
#X obj 388 45 samplerate~;
#X obj 398 79 s sample-rate;
#X obj 366 -19 bng 15 250 50 0 empty empty empty 17 7 0 10 #fcfcfc
#000000 #000000 1;
#X obj 415 -20 loadbang;
#X obj 517 67 expr ( \\$f1 / \\$f2 ) * 1000;
#X obj 608 6 r sample-rate;
#X obj 496 8 r hop;
#X obj 513 117 s hop-ms;
#X obj 594 123 print hop-ms;
#X obj 408 123 r sample-rate;
#X obj 296 125 r hop;
#X obj 317 184 expr \\$f2 / \\$f1;
#X obj 380 233 print hop-hz;
#X obj 313 234 s hop-hz;
#X connect 0 0 1 0;
#X connect 2 0 0 0;
#X connect 3 0 0 0;
#X connect 4 0 7 0;
#X connect 4 0 8 0;
#X connect 5 0 4 1;
#X connect 6 0 4 0;
#X connect 9 0 11 1;
#X connect 10 0 11 0;
#X connect 11 0 13 0;
#X connect 11 0 12 0;
#X restore 148 62 pd ms-calc;
#X floatatom 565 62 5 0 0 0 hop hop_set hop 0 0 1, f 5;
#X floatatom 569 91 5 0 0 0 window-size window-size_set window-size
0 0 1, f 5;
#X obj 630 161 r hop;
#X obj 705 174 r window-size;
#X msg 613 202 hop \$1;
#X msg 688 209 npts \$1;
#X obj 375 44 t b b b b;
#X obj 283 563 dac~;
#X msg 339 171 open bassnote.wav;
#X obj 411 124 sel 0 1;
#X obj 376 90 hradio 28 0 0 2 empty empty empty 0 -8 0 10 #fcfcfc #000000
#000000 1 1;
#X obj 256 57 tgl 15 0 empty empty empty 17 7 0 10 #fcfcfc #000000
#000000 1 1 1;
#X obj 240 86 spigot;
#X msg 521 256 print;
#X obj 295 33 adc~;
#X obj 304 97 spigot~;
#X obj 330 70 tgl 15 0 empty empty empty 17 7 0 10 #fcfcfc #000000
#000000 0 1 1;
#N canvas 2 30 1362 679 control-en2 1;
#X obj 53 43 inlet;
#X msg 499 124 0 0 0 0 0 0 250;
#X obj 173 272 line;
#X obj 189 204 unpack f f f f f f f, f 22;
#X obj 327 272 line;
#X obj 464 281 line;
#X obj 574 281 line;
#X obj 668 286 line;
#X obj 834 284 line;
#X obj 490 73 delay 250;
#X msg 303 116 0 -2 5.5 6.1 9.6 10.62 100;
#X obj 286 85 delay 80;
#X msg 102 129 -20 -20 5.5 6.1 9.6 17.71 10;
#X obj 149 442 s 1-shift;
#X obj 304 431 s 2-shift;
#X obj 437 435 s 3-shift;
#X obj 562 437 s 4-shift;
#X obj 817 439 s 6-shift;
#X obj 666 443 s 5-shift;
#X obj 202 329 + 100;
#X obj 160 389 dbtorms;
#X obj 339 324 + 100;
#X obj 297 384 dbtorms;
#X obj 465 324 + 100;
#X obj 423 384 dbtorms;
#X obj 595 330 + 100;
#X obj 553 390 dbtorms;
#X obj 695 316 + 100;
#X obj 653 376 dbtorms;
#X obj 863 322 + 100;
#X obj 821 382 dbtorms;
#X connect 0 0 12 0;
#X connect 0 0 9 0;
#X connect 0 0 11 0;
#X connect 1 0 3 0;
#X connect 2 0 19 0;
#X connect 3 0 2 0;
#X connect 3 1 4 0;
#X connect 3 2 5 0;
#X connect 3 3 6 0;
#X connect 3 4 7 0;
#X connect 3 5 8 0;
#X connect 3 6 2 1;
#X connect 3 6 4 1;
#X connect 3 6 5 1;
#X connect 3 6 6 1;
#X connect 3 6 7 1;
#X connect 3 6 8 1;
#X connect 4 0 21 0;
#X connect 5 0 23 0;
#X connect 6 0 25 0;
#X connect 7 0 27 0;
#X connect 8 0 29 0;
#X connect 9 0 1 0;
#X connect 10 0 3 0;
#X connect 11 0 10 0;
#X connect 12 0 3 0;
#X connect 19 0 20 0;
#X connect 20 0 13 0;
#X connect 21 0 22 0;
#X connect 22 0 14 0;
#X connect 23 0 24 0;
#X connect 24 0 15 0;
#X connect 25 0 26 0;
#X connect 26 0 16 0;
#X connect 27 0 28 0;
#X connect 28 0 18 0;
#X connect 29 0 30 0;
#X connect 30 0 17 0;
#X restore 560 474 pd control-en2;
#N canvas 2 30 1362 679 timbre-adjust 0;
#X obj 255 34 inlet;
#X obj 875 212 outlet;
#X obj 259 93 route 1 2 3 4 5 6;
#X obj 63 168 adjust-track 1;
#X obj 580 173 adjust-track 6;
#X obj 481 172 adjust-track 5;
#X obj 381 173 adjust-track 4;
#X obj 280 171 adjust-track 3;
#X obj 173 170 adjust-track 2;
#X obj 721 132 unpack f f f f f;
#X obj 769 169 pack f f f f;
#X connect 0 0 2 0;
#X connect 2 0 3 0;
#X connect 2 1 8 0;
#X connect 2 2 7 0;
#X connect 2 3 6 0;
#X connect 2 4 5 0;
#X connect 2 5 4 0;
#X connect 2 6 9 0;
#X connect 3 0 1 0;
#X connect 4 0 1 0;
#X connect 5 0 1 0;
#X connect 6 0 1 0;
#X connect 7 0 1 0;
#X connect 8 0 1 0;
#X connect 9 1 10 0;
#X connect 9 2 10 1;
#X connect 9 3 10 2;
#X connect 9 4 10 3;
#X connect 10 0 1 0;
#X restore 371 453 pd timbre-adjust;
#X obj 384 492 martha~ 20 20;
#X obj 481 453 r martha-com;
#X obj 376 367 sigmund~ -hop 1024 -npts 4096 -npeak 20 tracks pitch
notes;
#X obj 337 6 bng 14 250 50 0 empty empty empty 17 7 0 10 #fcfcfc #000000
#000000 1;
#X msg 609 10 \; hop_set 1024 \; window-size_set 4096 \; martha-com
attack-time-range 5 5 \; martha-com release-time-range 5 5;
#X msg 558 514 \; 1-shift 1 \; 2-shift 1 \; 3-shift 1 \; 4-shift 1
\; 5-shift 1 \; 6-shift 1 \;;
#X connect 0 0 32 0;
#X connect 1 0 0 0;
#X connect 3 0 31 0;
#X connect 4 0 35 0;
#X connect 4 1 8 0;
#X connect 4 1 10 0;
#X connect 5 0 20 0;
#X connect 7 0 6 0;
#X connect 8 1 9 0;
#X connect 9 0 6 0;
#X connect 10 0 26 0;
#X connect 11 0 4 0;
#X connect 12 0 4 0;
#X connect 12 0 6 0;
#X connect 16 0 18 0;
#X connect 17 0 19 0;
#X connect 18 0 35 0;
#X connect 19 0 35 0;
#X connect 20 0 12 0;
#X connect 20 1 7 0;
#X connect 20 1 24 0;
#X connect 20 3 37 0;
#X connect 22 0 4 0;
#X connect 23 0 22 0;
#X connect 23 1 11 0;
#X connect 24 0 23 0;
#X connect 25 0 26 1;
#X connect 26 0 20 0;
#X connect 27 0 0 0;
#X connect 28 0 29 0;
#X connect 29 0 35 0;
#X connect 30 0 29 1;
#X connect 32 0 33 0;
#X connect 33 0 6 0;
#X connect 33 0 21 0;
#X connect 33 0 21 1;
#X connect 34 0 33 1;
#X connect 35 0 0 0;
#X connect 35 1 1 0;
#X connect 35 2 3 0;
#X connect 36 0 20 0;
