#N canvas 110 158 652 470 12;
#X msg 105 83 0 440 1 1;
#X obj 103 16 inlet;
#X obj 104 191 unpack f f f f f;
#X obj 184 306 *;
#X obj 152 348 *;
#X obj 126 383 *;
#X obj 103 234 ==;
#X obj 139 235 ==;
#X obj 175 239 ==;
#X obj 211 235 ==;
#X obj 247 238 ==;
#X obj 282 181 unpack f f f f f;
#X obj 99 417 *;
#X obj 96 453 outlet;
#X obj 422 185 print expected;
#X obj 7 191 print actual;
#X obj 263 13 bng 15 250 50 0 empty empty empty 17 7 0 10 #fcfcfc #000000
#000000 1;
#X obj 105 48 t b b;
#X obj 166 453 print test_result;
#X obj 106 114 t b l;
#X obj 106 148 overtones 1;
#X msg 334 90 1 0 440 1 1;
#X connect 0 0 19 0;
#X connect 1 0 17 0;
#X connect 2 0 6 0;
#X connect 2 1 7 0;
#X connect 2 2 8 0;
#X connect 2 3 9 0;
#X connect 2 4 10 0;
#X connect 3 0 4 1;
#X connect 4 0 5 1;
#X connect 5 0 12 1;
#X connect 6 0 12 0;
#X connect 7 0 5 0;
#X connect 8 0 4 0;
#X connect 9 0 3 0;
#X connect 10 0 3 1;
#X connect 11 0 6 1;
#X connect 11 1 7 1;
#X connect 11 2 8 1;
#X connect 11 3 9 1;
#X connect 11 4 10 1;
#X connect 12 0 13 0;
#X connect 12 0 18 0;
#X connect 16 0 17 0;
#X connect 17 0 0 0;
#X connect 17 1 21 0;
#X connect 19 0 20 0;
#X connect 19 1 20 0;
#X connect 20 0 2 0;
#X connect 20 0 15 0;
#X connect 21 0 11 0;
#X connect 21 0 14 0;
