#N canvas 44 57 652 645 12;
#X obj 103 16 inlet;
#X obj 112 308 outlet;
#X obj 263 13 bng 15 250 50 0 empty empty empty 17 7 0 10 #fcfcfc #000000
#000000 1;
#X msg 338 136 1 0 440 1 1;
#X obj 108 170 overtones 2;
#X obj 358 74 i;
#X obj 426 57 + 1;
#X obj 105 48 t b b b;
#X msg 338 31 0;
#X obj 391 95 select 0 1;
#X obj 213 50 s init;
#X obj 335 0 r init;
#X msg 400 161 -1 1 0 0 -1;
#X msg 487 37 2;
#X obj 488 77 s expected_count;
#X obj 110 256 abs/validate_outputs;
#X obj 106 208 t l b;
#X msg 107 121 0 440 1 1 \, bang;
#X connect 0 0 7 0;
#X connect 2 0 7 0;
#X connect 3 0 15 1;
#X connect 4 0 16 0;
#X connect 5 0 6 0;
#X connect 5 0 9 0;
#X connect 6 0 5 1;
#X connect 7 0 17 0;
#X connect 7 1 3 0;
#X connect 7 2 10 0;
#X connect 8 0 5 1;
#X connect 9 0 3 0;
#X connect 9 1 12 0;
#X connect 11 0 8 0;
#X connect 11 0 13 0;
#X connect 12 0 15 1;
#X connect 13 0 14 0;
#X connect 15 0 1 0;
#X connect 16 0 15 0;
#X connect 16 1 5 0;
#X connect 17 0 4 0;
