#N canvas 250 92 722 606 12;
#X obj 144 -71 unpack f f f f f;
#X obj 224 44 *;
#X obj 192 86 *;
#X obj 166 121 *;
#X obj 143 -28 ==;
#X obj 179 -27 ==;
#X obj 215 -23 ==;
#X obj 251 -27 ==;
#X obj 287 -24 ==;
#X obj 320 -79 unpack f f f f f;
#X obj 139 155 *;
#X obj 140 382 outlet;
#X obj 460 -75 print expected;
#X obj 226 -102 print actual;
#X obj 210 382 print test_result;
#X obj 149 287 i 1;
#X msg 193 244 1;
#X obj 199 149 r init;
#X obj 130 243 *;
#X obj 231 283 i;
#X msg 244 245 0;
#X obj 275 283 + 1;
#X obj 180 340 spigot;
#X obj 170 316 t f b;
#X obj 147 212 print this_result;
#X obj 399 -119 t l l;
#X obj 345 251 r expected_count;
#X obj 313 284 - 1;
#X obj 83 -192 inlet;
#X obj 349 -194 inlet;
#X text 138 -194 output of overtones;
#X text 403 -193 expected result;
#X obj 155 -140 t l l;
#X obj 238 315 >=;
#X obj 127 183 t f f, f 6;
#X connect 0 0 4 0;
#X connect 0 1 5 0;
#X connect 0 2 6 0;
#X connect 0 3 7 0;
#X connect 0 4 8 0;
#X connect 1 0 2 1;
#X connect 2 0 3 1;
#X connect 3 0 10 1;
#X connect 4 0 10 0;
#X connect 5 0 3 0;
#X connect 6 0 2 0;
#X connect 7 0 1 0;
#X connect 8 0 1 1;
#X connect 9 0 4 1;
#X connect 9 1 5 1;
#X connect 9 2 6 1;
#X connect 9 3 7 1;
#X connect 9 4 8 1;
#X connect 10 0 34 0;
#X connect 15 0 18 1;
#X connect 15 0 23 0;
#X connect 16 0 15 1;
#X connect 16 0 18 1;
#X connect 17 0 16 0;
#X connect 17 0 20 0;
#X connect 18 0 15 0;
#X connect 19 0 21 0;
#X connect 19 0 33 0;
#X connect 20 0 19 1;
#X connect 21 0 19 1;
#X connect 22 0 11 0;
#X connect 22 0 14 0;
#X connect 23 0 22 0;
#X connect 23 1 19 0;
#X connect 25 0 9 0;
#X connect 25 1 12 0;
#X connect 26 0 27 0;
#X connect 27 0 33 1;
#X connect 28 0 32 0;
#X connect 29 0 25 0;
#X connect 32 0 0 0;
#X connect 32 1 13 0;
#X connect 33 0 22 1;
#X connect 34 0 18 0;
#X connect 34 1 24 0;
