#N canvas 160 310 563 494 12;
#X obj 116 195 msgfile;
#X msg 139 149 flush;
#X obj 80 319 overtones;
#X obj 129 429 msgfile;
#X msg 226 397 clear;
#X obj 194 186 print done;
#X obj 130 7 bng 15 250 50 0 empty empty empty 17 7 0 10 #fcfcfc #000000
#000000 1;
#X obj 107 228 route symbol;
#X msg 63 360 add \$1 \$2 \$3 \$4 \$5;
#X obj 133 37 t b b b b;
#X msg 83 150 next;
#X obj 108 261 t b;
#X obj 189 107 symbol;
#X obj 298 82 r sfn;
#X obj 211 69 s start-\$0;
#X obj 288 367 r start-\$0;
#X obj 363 207 r done-\$0;
#X obj 225 216 s done-\$0;
#X msg 196 150 read \$1 csv;
#X obj 339 242 symbol;
#X obj 444 208 r fn;
#X msg 276 317 write \$1 csv;
#X obj 304 274 makefilename %s-oout.csv;
#X obj 443 332 s ofn;
#X obj 67 8 inlet;
#X connect 0 0 7 0;
#X connect 0 1 5 0;
#X connect 0 1 17 0;
#X connect 1 0 0 0;
#X connect 2 0 8 0;
#X connect 4 0 3 0;
#X connect 6 0 9 0;
#X connect 7 0 11 0;
#X connect 7 1 2 0;
#X connect 8 0 3 0;
#X connect 9 0 10 0;
#X connect 9 1 1 0;
#X connect 9 2 12 0;
#X connect 9 3 14 0;
#X connect 10 0 0 0;
#X connect 11 0 2 0;
#X connect 12 0 18 0;
#X connect 13 0 12 1;
#X connect 15 0 4 0;
#X connect 16 0 19 0;
#X connect 18 0 0 0;
#X connect 19 0 22 0;
#X connect 20 0 19 1;
#X connect 21 0 3 0;
#X connect 22 0 21 0;
#X connect 22 0 23 0;
#X connect 24 0 9 0;
