#N canvas 48 381 598 559 12;
#X obj 37 204 sigmund~ -hop 1024 -npts 4096 -npeak 20 tracks pitch
notes;
#X obj 44 480 msgfile;
#X msg 38 257 add \$1 \$2 \$3 \$4;
#X obj 37 159 readsf~;
#X obj 33 10 bng 15 250 50 0 empty empty empty 17 7 0 10 #fcfcfc #000000
#000000 1;
#X obj 33 29 t b b;
#X obj 264 162 print done;
#X msg 157 442 clear;
#X msg 191 258 add bang;
#X msg 33 125 open \$1 \, start;
#X obj 301 280 r fn;
#X obj 198 340 symbol;
#X obj 268 315 makefilename %s-sout.csv;
#X msg 173 377 write \$1 csv;
#X obj 330 359 s sfn;
#X obj 114 26 s start-\$0;
#X obj 190 171 s done-\$0;
#X obj 204 289 r done-\$0;
#X obj 219 412 r start-\$0;
#X obj 92 66 r fn;
#X obj 30 93 symbol;
#X obj 61 3 inlet;
#X connect 0 0 2 0;
#X connect 0 1 8 0;
#X connect 2 0 1 0;
#X connect 3 0 0 0;
#X connect 3 1 6 0;
#X connect 3 1 16 0;
#X connect 4 0 5 0;
#X connect 5 0 20 0;
#X connect 5 1 15 0;
#X connect 7 0 1 0;
#X connect 8 0 1 0;
#X connect 9 0 3 0;
#X connect 10 0 12 0;
#X connect 11 0 13 0;
#X connect 12 0 11 1;
#X connect 12 0 14 0;
#X connect 13 0 1 0;
#X connect 17 0 11 0;
#X connect 18 0 7 0;
#X connect 19 0 20 1;
#X connect 20 0 9 0;
#X connect 21 0 5 0;
