#N canvas 741 75 732 569 12;
#X obj 76 392 msgfile;
#X obj 299 26 bang~;
#X obj 279 81 i;
#X obj 325 121 + 1;
#X msg 513 12 64;
#X text 552 12 blocksize;
#X text 442 12 hopsize;
#X obj 464 58 /;
#X obj 323 81 moses;
#X msg 371 123 0;
#X obj 245 135 == 0;
#X obj 81 495 martha~ 20 20;
#X msg 245 465 dsp-switch 0;
#X msg 240 432 dsp-switch 1;
#X obj 126 8 bng 15 250 50 0 empty empty empty 17 7 0 10 #fcfcfc #000000
#000000 1;
#X msg 206 73 0;
#X obj 72 543 dac~ 1 2;
#X obj 401 505 print msg;
#X obj 127 39 t b b b b b;
#X obj 229 247 i;
#X obj 279 248 + 1;
#X msg 242 204 0;
#X msg 212 290 bang;
#X obj 281 281 moses 20;
#X obj 243 168 sel 1;
#X msg 398 11 1024;
#X obj 76 417 route symbol;
#X msg 82 450 \$1 \$2 \$3 \$4;
#X msg 15 352 read sigmund_out.csv csv \, rewind;
#X connect 0 0 26 0;
#X connect 0 1 12 0;
#X connect 1 0 2 0;
#X connect 2 0 8 0;
#X connect 2 0 10 0;
#X connect 3 0 2 1;
#X connect 4 0 7 1;
#X connect 7 0 8 1;
#X connect 8 0 3 0;
#X connect 8 1 9 0;
#X connect 9 0 2 1;
#X connect 10 0 24 0;
#X connect 11 0 16 0;
#X connect 11 0 16 1;
#X connect 12 0 11 1;
#X connect 13 0 11 1;
#X connect 14 0 18 0;
#X connect 15 0 2 0;
#X connect 18 0 13 0;
#X connect 18 1 15 0;
#X connect 18 2 28 0;
#X connect 18 3 25 0;
#X connect 18 4 4 0;
#X connect 19 0 20 0;
#X connect 19 0 22 0;
#X connect 20 0 23 0;
#X connect 21 0 19 0;
#X connect 22 0 0 0;
#X connect 23 0 19 0;
#X connect 24 0 21 0;
#X connect 25 0 7 0;
#X connect 26 1 27 0;
#X connect 27 0 11 0;
#X connect 28 0 0 0;
